<svg width="28" height="28" viewBox="0 0 28 28" fill="none" xmlns="http://www.w3.org/2000/svg">
<rect x="0.709595" y="0.530029" width="27.2179" height="27.31" rx="4" fill="#6435A6"/>
<path d="M20.8022 6.53014H7.83486C7.6891 6.52811 7.54436 6.55482 7.40892 6.60874C7.27348 6.66266 7.14998 6.74273 7.04549 6.84438C6.941 6.94603 6.85755 7.06727 6.79992 7.20117C6.74228 7.33507 6.71159 7.47902 6.70959 7.62478V20.7452C6.71159 20.891 6.74228 21.0349 6.79992 21.1688C6.85755 21.3028 6.941 21.424 7.04549 21.5256C7.14998 21.6273 7.27348 21.7074 7.40892 21.7613C7.54436 21.8152 7.6891 21.8419 7.83486 21.8399H20.8022C20.948 21.8419 21.0927 21.8152 21.2282 21.7613C21.3636 21.7074 21.4871 21.6273 21.5916 21.5256C21.6961 21.424 21.7795 21.3028 21.8372 21.1688C21.8948 21.0349 21.9255 20.891 21.9275 20.7452V7.62478C21.9255 7.47902 21.8948 7.33507 21.8372 7.20117C21.7795 7.06727 21.6961 6.94603 21.5916 6.84438C21.4871 6.74273 21.3636 6.66266 21.2282 6.60874C21.0927 6.55482 20.948 6.52811 20.8022 6.53014ZM11.3255 19.3444H9.02902V12.455H11.3255V19.3444ZM10.1773 11.4905C9.86054 11.4905 9.5568 11.3647 9.33285 11.1407C9.1089 10.9168 8.98309 10.613 8.98309 10.2963C8.98309 9.97962 9.1089 9.67588 9.33285 9.45194C9.5568 9.22799 9.86054 9.10217 10.1773 9.10217C10.3454 9.0831 10.5157 9.09977 10.677 9.15108C10.8383 9.20239 10.9869 9.28718 11.1132 9.39992C11.2394 9.51265 11.3404 9.65078 11.4096 9.80526C11.4787 9.95974 11.5145 10.1271 11.5145 10.2963C11.5145 10.4656 11.4787 10.6329 11.4096 10.7874C11.3404 10.9419 11.2394 11.08 11.1132 11.1927C10.9869 11.3055 10.8383 11.3903 10.677 11.4416C10.5157 11.4929 10.3454 11.5096 10.1773 11.4905ZM19.6081 19.3444H17.3116V15.6471C17.3116 14.7209 16.9824 14.1161 16.1481 14.1161C15.8898 14.118 15.6384 14.199 15.4276 14.3482C15.2168 14.4974 15.0568 14.7076 14.9692 14.9505C14.9093 15.1304 14.8833 15.3199 14.8927 15.5093V19.3367H12.5962C12.5962 19.3367 12.5962 13.0751 12.5962 12.4474H14.8927V13.4195C15.1013 13.0575 15.4047 12.7593 15.7702 12.557C16.1358 12.3546 16.5496 12.2559 16.9671 12.2713C18.4981 12.2713 19.6081 13.2588 19.6081 15.3792V19.3444Z" fill="white"/>
</svg>
