<svg width="27" height="27" viewBox="0 0 27 27" fill="none" xmlns="http://www.w3.org/2000/svg">
<rect width="27" height="27" rx="4" fill="#6435A6"/>
<path d="M23.3717 7.39329C22.6838 7.71997 21.9541 7.93438 21.2069 8.02937C21.9851 7.52943 22.5827 6.73774 22.8641 5.79445C22.1242 6.26499 21.3148 6.59652 20.4707 6.77474C19.7831 5.98966 18.8036 5.49902 17.7195 5.49902C15.6379 5.49902 13.9502 7.30776 13.9502 9.5386C13.9502 9.85526 13.9835 10.1635 14.0478 10.4593C10.9153 10.2908 8.13797 8.68253 6.27891 6.23848C5.95454 6.83511 5.76867 7.52912 5.76867 8.26935C5.76867 9.67089 6.43414 10.9073 7.44545 11.6318C6.84689 11.6117 6.2615 11.4384 5.73817 11.1264C5.73798 11.1434 5.73791 11.1603 5.73795 11.1773C5.73795 13.1345 7.03718 14.7673 8.76139 15.1384C8.20635 15.3002 7.62416 15.3238 7.05928 15.2076C7.53888 16.8125 8.9309 17.9804 10.5802 18.0131C9.29022 19.0965 7.66497 19.7424 5.89914 19.7424C5.59486 19.7424 5.29488 19.7232 5 19.6859C6.66802 20.8321 8.64922 21.5009 10.7778 21.5009C17.7107 21.5009 21.5018 15.3453 21.5018 10.0071C21.5018 9.83188 21.4982 9.65766 21.4909 9.48445C22.2287 8.91267 22.8656 8.20454 23.3717 7.39329Z" fill="white"/>
</svg>
