<svg width="27" height="27" viewBox="0 0 27 27" fill="none" xmlns="http://www.w3.org/2000/svg">
<rect width="27" height="27" rx="4" fill="#6435A6"/>
<path d="M13.1859 11.6007C12.8104 11.6007 12.4434 11.712 12.1312 11.9206C11.819 12.1292 11.5757 12.4257 11.432 12.7726C11.2883 13.1195 11.2507 13.5012 11.3239 13.8695C11.3972 14.2377 11.578 14.576 11.8435 14.8415C12.109 15.107 12.4473 15.2878 12.8155 15.361C13.1838 15.4343 13.5655 15.3967 13.9124 15.253C14.2593 15.1093 14.5557 14.866 14.7643 14.5538C14.9729 14.2416 15.0843 13.8746 15.0843 13.4991C15.0843 13.2498 15.0352 13.0029 14.9398 12.7726C14.8444 12.5423 14.7045 12.333 14.5283 12.1567C14.352 11.9805 14.1427 11.8406 13.9124 11.7452C13.682 11.6498 13.4352 11.6007 13.1859 11.6007ZM20.7872 9.72526C20.7831 9.13412 20.6743 8.54838 20.4657 7.99526C20.312 7.59051 20.0743 7.22295 19.7682 6.91683C19.462 6.6107 19.0945 6.37297 18.6897 6.21933C18.1366 6.0107 17.5509 5.90185 16.9597 5.89782C15.9723 5.84424 15.6814 5.84424 13.1859 5.84424C10.6904 5.84424 10.3995 5.84424 9.41203 5.89782C8.82089 5.90185 8.23514 6.0107 7.68203 6.21933C7.27728 6.37297 6.90972 6.6107 6.6036 6.91683C6.29747 7.22295 6.05974 7.59051 5.90609 7.99526C5.69747 8.54838 5.58862 9.13412 5.58459 9.72526C5.53101 10.7127 5.53101 11.0036 5.53101 13.4991C5.53101 15.9946 5.53101 16.2855 5.58459 17.273C5.59283 17.8662 5.70154 18.4537 5.90609 19.0106C6.05906 19.4135 6.29659 19.7789 6.60269 20.0823C6.9075 20.3903 7.27585 20.628 7.68203 20.7789C8.23514 20.9875 8.82089 21.0964 9.41203 21.1004C10.3995 21.154 10.6904 21.154 13.1859 21.154C15.6814 21.154 15.9723 21.154 16.9597 21.1004C17.5509 21.0964 18.1366 20.9875 18.6897 20.7789C19.0959 20.628 19.4643 20.3903 19.7691 20.0823C20.0752 19.7789 20.3127 19.4135 20.4657 19.0106C20.6741 18.4548 20.7829 17.8666 20.7872 17.273C20.8408 16.2855 20.8408 15.9946 20.8408 13.4991C20.8408 11.0036 20.8408 10.7127 20.7872 9.72526ZM18.8428 15.8492C18.8183 16.3215 18.7175 16.7868 18.5443 17.227C18.3957 17.5942 18.1748 17.9278 17.8947 18.2079C17.6146 18.488 17.281 18.7089 16.9138 18.8575C16.4694 19.021 16.0015 19.1115 15.5283 19.1254C14.9235 19.1254 14.7628 19.1254 13.1859 19.1254C11.609 19.1254 11.4482 19.1254 10.8435 19.1254C10.3702 19.1115 9.90231 19.021 9.45796 18.8575C9.07835 18.7165 8.73555 18.4914 8.45517 18.1992C8.17781 17.9246 7.96361 17.5928 7.82747 17.227C7.66331 16.7831 7.57532 16.3147 7.5672 15.8415C7.5672 15.2368 7.5672 15.076 7.5672 13.4991C7.5672 11.9222 7.5672 11.7615 7.5672 11.1567C7.57532 10.6835 7.66331 10.2151 7.82747 9.77119C7.96853 9.39159 8.19358 9.04878 8.48579 8.7684C8.76162 8.49254 9.09302 8.27856 9.45796 8.1407C9.90231 7.9772 10.3702 7.88672 10.8435 7.87278C11.4482 7.87278 11.609 7.87278 13.1859 7.87278C14.7628 7.87278 14.9235 7.87278 15.5283 7.87278C16.0015 7.88672 16.4694 7.9772 16.9138 8.1407C17.2934 8.28177 17.6362 8.50681 17.9166 8.79902C18.194 9.07364 18.4082 9.40539 18.5443 9.77119C18.7078 10.2155 18.7983 10.6834 18.8122 11.1567C18.8122 11.7615 18.8122 11.9222 18.8122 13.4991C18.8122 15.076 18.8658 15.2368 18.8428 15.8415V15.8492ZM17.6181 10.1539C17.5269 9.90667 17.3832 9.68212 17.1969 9.49578C17.0105 9.30943 16.786 9.16574 16.5387 9.07459C16.1992 8.95691 15.8416 8.8999 15.4823 8.90619C14.8853 8.90619 14.7169 8.90619 13.1859 8.90619C11.6549 8.90619 11.4865 8.90619 10.8894 8.90619C10.5283 8.90972 10.1707 8.9771 9.83305 9.10521C9.58957 9.19222 9.36739 9.33005 9.1813 9.50955C8.9952 9.68904 8.84944 9.9061 8.75371 10.1463C8.64254 10.4872 8.58823 10.8441 8.59296 11.2027C8.59296 11.7997 8.59296 11.9681 8.59296 13.4991C8.59296 15.0301 8.59296 15.1985 8.59296 15.7956C8.60054 16.1563 8.6678 16.5132 8.79198 16.8519C8.88312 17.0992 9.02682 17.3238 9.21316 17.5101C9.39951 17.6964 9.62405 17.8401 9.87132 17.9313C10.1979 18.0514 10.5416 18.1186 10.8894 18.1303C11.4865 18.1303 11.6549 18.1303 13.1859 18.1303C14.7169 18.1303 14.8853 18.1303 15.4823 18.1303C15.8434 18.1268 16.2011 18.0594 16.5387 17.9313C16.786 17.8401 17.0105 17.6964 17.1969 17.5101C17.3832 17.3238 17.5269 17.0992 17.6181 16.8519C17.7462 16.5143 17.8135 16.1567 17.8171 15.7956C17.8171 15.1985 17.8171 15.0301 17.8171 13.4991C17.8171 11.9681 17.8171 11.7997 17.8171 11.2027C17.8173 10.8412 17.7498 10.4829 17.6181 10.1463V10.1539ZM13.1859 16.4233C12.8022 16.4233 12.4224 16.3476 12.068 16.2005C11.7137 16.0535 11.3918 15.838 11.1209 15.5663C10.85 15.2947 10.6353 14.9723 10.4892 14.6176C10.3431 14.2628 10.2684 13.8828 10.2694 13.4991C10.2694 12.9204 10.4411 12.3548 10.7627 11.8737C11.0844 11.3927 11.5415 11.0179 12.0763 10.7968C12.611 10.5757 13.1994 10.5183 13.7668 10.6317C14.3343 10.7452 14.8553 11.0244 15.2639 11.4341C15.6726 11.8439 15.9505 12.3656 16.0624 12.9333C16.1744 13.5011 16.1154 14.0893 15.8929 14.6235C15.6704 15.1576 15.2944 15.6138 14.8125 15.9342C14.3307 16.2546 13.7645 16.4248 13.1859 16.4233ZM16.2478 11.1491C16.0786 11.1312 15.922 11.0513 15.8082 10.9248C15.6944 10.7983 15.6314 10.6341 15.6314 10.464C15.6314 10.2938 15.6944 10.1297 15.8082 10.0032C15.922 9.87666 16.0786 9.79676 16.2478 9.77884C16.417 9.79676 16.5736 9.87666 16.6875 10.0032C16.8013 10.1297 16.8642 10.2938 16.8642 10.464C16.8642 10.6341 16.8013 10.7983 16.6875 10.9248C16.5736 11.0513 16.417 11.1312 16.2478 11.1491Z" fill="white"/>
</svg>
