<svg width="28" height="28" viewBox="0 0 28 28" fill="none" xmlns="http://www.w3.org/2000/svg">
<rect width="27.2179" height="27.31" rx="4" fill="#6435A6"/>
<path d="M19.7232 10.0956H16.0039V11.1749H19.7378L19.7232 10.0956ZM18.9382 17.5208C18.6561 17.7159 18.3229 17.8149 17.9846 17.8041C17.7606 17.8284 17.5343 17.8043 17.3197 17.7332C17.1051 17.662 16.9069 17.5454 16.7375 17.3907C16.4249 17.0197 16.2619 16.537 16.2826 16.0434H21.139C21.1737 15.5295 21.1316 15.013 21.0143 14.5125C20.9002 14.0365 20.7011 13.5872 20.4274 13.1882C20.1511 12.8018 19.7951 12.4853 19.3857 12.2619C18.9295 12.0282 18.4268 11.9101 17.9185 11.9175C17.4405 11.9142 16.9666 12.0105 16.5247 12.2007C16.12 12.3785 15.7534 12.6387 15.4463 12.9662C15.14 13.3 14.9028 13.6961 14.7494 14.1297C14.5849 14.5979 14.5029 15.0932 14.5073 15.5918C14.4995 16.0975 14.579 16.6006 14.7421 17.0769C14.8811 17.5079 15.1005 17.9059 15.3876 18.248C15.6854 18.5835 16.0514 18.845 16.4587 19.0135C16.9129 19.1941 17.3959 19.2824 17.8819 19.2738C18.5637 19.296 19.2368 19.1097 19.8185 18.738C20.4065 18.3028 20.8297 17.6662 21.0143 16.9391H19.3931C19.3063 17.1795 19.1465 17.3838 18.9382 17.5208ZM16.422 14.367C16.4791 14.1762 16.5739 13.9999 16.7002 13.8496C16.8266 13.6993 16.9817 13.5783 17.1556 13.4944C17.3861 13.3867 17.6368 13.3344 17.8892 13.3413C18.0716 13.325 18.2552 13.3501 18.4274 13.4149C18.5996 13.4796 18.7563 13.5825 18.8869 13.7164C19.1365 14.0345 19.2965 14.4188 19.349 14.8263H16.3046C16.3165 14.6708 16.3435 14.5169 16.3853 14.367H16.422ZM12.5413 13.9996C12.9147 13.8374 13.2391 13.5729 13.4803 13.2341C13.7029 12.8747 13.8131 12.4521 13.7957 12.0246C13.8096 11.6349 13.7368 11.2472 13.583 10.8917C13.4534 10.5839 13.2453 10.3192 12.9815 10.1262C12.7021 9.9248 12.3843 9.78899 12.0498 9.72817C11.6543 9.64136 11.2508 9.60029 10.8467 9.6057H6.46716V19.2355H10.9421C11.3504 19.2354 11.7571 19.1814 12.1525 19.0748C12.5269 18.9729 12.8818 18.8046 13.2015 18.5772C13.5115 18.3542 13.7636 18.0543 13.9351 17.7046C14.1261 17.3141 14.2195 16.8797 14.2066 16.4415C14.2205 15.8986 14.0745 15.3642 13.7884 14.9105C13.4807 14.4542 13.0244 14.1304 12.5046 13.9996H12.5413ZM8.49921 11.2515H10.3992C10.5738 11.2506 10.7481 11.266 10.9201 11.2974C11.0787 11.3211 11.231 11.3784 11.3676 11.4658C11.4999 11.5439 11.6071 11.6611 11.6757 11.8026C11.7613 11.9721 11.8018 12.1624 11.793 12.3538C11.8067 12.5186 11.7826 12.6843 11.7226 12.8374C11.6626 12.9905 11.5686 13.1265 11.4483 13.2341C11.1857 13.4224 10.8716 13.5165 10.5533 13.502H8.49921V11.2515ZM12.0498 16.9467C11.9738 17.1023 11.86 17.2343 11.7197 17.3295C11.5732 17.4245 11.4118 17.4919 11.2428 17.5285C11.0551 17.5726 10.863 17.5931 10.6706 17.5897H8.46987V14.9488H10.6706C11.0483 14.9315 11.4213 15.0416 11.7344 15.2626C11.8758 15.3951 11.9854 15.5604 12.0542 15.7453C12.123 15.9302 12.1492 16.1293 12.1305 16.3267C12.1495 16.5371 12.1219 16.7492 12.0498 16.9467Z" fill="white"/>
</svg>
