<svg width="50" height="42" viewBox="0 0 50 42" fill="none" xmlns="http://www.w3.org/2000/svg">
<path d="M48.2418 0H44.946C43.9734 0 43.1855 0.889985 43.1855 1.98167V14.497C43.1855 16.5518 41.6997 18.2284 39.8694 18.2284H31.7244C29.8987 18.2284 28.4084 16.5568 28.4084 14.497V1.98167C28.4084 0.887463 27.6182 0 26.6479 0H23.3498C22.3773 0 21.5894 0.889985 21.5894 1.98167V14.497C21.5894 16.5518 20.1036 18.2284 18.2733 18.2284H10.1261C8.30032 18.2284 6.81 16.5568 6.81 14.497V1.98167C6.81 0.887463 6.01981 0 5.04953 0H1.76047C0.787933 0 0 0.889985 0 1.98167V17.3006C0 20.3512 2.20396 22.8321 4.91445 22.8321H7.48311C7.61144 22.8321 7.74201 22.8422 7.87708 22.8598C9.54075 23.0817 10.7947 24.6726 10.7947 26.5635V39.1141C10.7947 40.2083 11.5849 41.0958 12.5552 41.0958H15.8532C16.8258 41.0958 17.6137 40.2058 17.6137 39.1141V26.5988C17.6137 24.544 19.0995 22.8674 20.9253 22.8674H29.0725C30.8982 22.8674 32.3841 24.539 32.3841 26.5988V39.1141C32.3841 40.2083 33.1742 41.0958 34.1445 41.0958H37.4426C38.4151 41.0958 39.2031 40.2058 39.2031 39.1141V26.5635C39.2031 24.6726 40.4593 23.0817 42.1229 22.8598C42.2557 22.8397 42.3908 22.8321 42.5169 22.8321H45.0855C47.796 22.8321 50 20.3512 50 17.3006V1.98167C50 0.887463 49.2098 0 48.2395 0H48.2418Z" fill="black"/>
</svg>
